<svg 
 xmlns="http://www.w3.org/2000/svg"
 xmlns:xlink="http://www.w3.org/1999/xlink"
 width="19px" height="17px">
<path fill-rule="evenodd"  fill=""
 d="M16.511,3.524 L18.358,3.155 C18.358,3.155 16.810,4.905 16.511,5.0 C16.508,5.0 16.505,4.997 16.502,4.997 C16.462,5.851 16.511,6.106 16.511,6.106 C12.981,21.317 0.7,14.592 0.7,14.592 C4.718,14.717 5.139,12.747 5.139,12.747 C2.372,12.327 1.838,10.534 1.838,10.534 C2.779,10.964 3.305,10.165 3.305,10.165 C0.318,9.389 0.738,6.475 0.738,6.475 C1.237,6.934 2.52,7.109 2.538,7.174 C2.200,6.780 0.587,3.419 1.104,1.679 C1.104,1.679 3.141,5.362 8.533,5.714 L8.893,5.624 C8.838,5.363 8.808,5.92 8.808,4.815 C8.808,2.676 10.532,0.941 12.659,0.941 C15.224,0.941 15.777,2.417 15.777,2.417 L17.611,1.310 C17.611,1.310 17.410,3.159 16.511,3.524 Z"/>
</svg>