<svg 
 xmlns="http://www.w3.org/2000/svg"
 xmlns:xlink="http://www.w3.org/1999/xlink"
 width="19px" height="16px">
<path fill-rule="evenodd"  fill=""
 d="M11.210,3.812 C11.201,4.269 11.778,3.916 12.311,4.181 C12.844,4.446 13.904,4.748 13.44,7.133 C13.44,7.133 11.842,10.726 10.844,10.453 C10.844,10.453 9.294,10.515 9.9,7.133 C8.725,3.750 8.146,0.316 6.442,0.491 C4.737,0.668 2.264,2.334 0.584,4.550 C0.584,4.550 1.48,5.708 1.673,5.657 C2.299,5.606 2.260,4.696 2.773,4.919 C3.287,5.142 4.83,5.106 4.608,8.239 C5.133,11.374 5.914,13.22 6.809,14.512 C7.703,16.2 8.611,16.2 9.376,16.2 C10.142,16.2 12.596,14.224 14.879,11.191 C17.161,8.158 18.923,4.504 18.923,3.812 C18.923,3.120 19.568,0.572 17.79,0.123 C14.590,0.326 11.243,2.188 11.210,3.812 Z"/>
</svg>